<?xml version="1.0" standalone="no"?>
<!DOCTYPE svg PUBLIC "-//W3C//DTD SVG 20010904//EN"
 "http://www.w3.org/TR/2001/REC-SVG-20010904/DTD/svg10.dtd">
<svg version="1.0" xmlns="http://www.w3.org/2000/svg"
 width="512.000000pt" height="512.000000pt" viewBox="0 0 512.000000 512.000000"
 preserveAspectRatio="xMidYMid meet">
<metadata>
Created by potrace 1.14, written by Peter Selinger 2001-2017
</metadata>
<g transform="translate(0.000000,512.000000) scale(0.100000,-0.100000)"
fill="#000000" stroke="none">
<path d="M2308 5115 c-2 -1 -52 -5 -113 -9 -60 -3 -121 -8 -135 -10 -14 -3
-61 -7 -104 -11 -43 -4 -88 -9 -100 -11 -12 -2 -52 -9 -91 -15 -251 -38 -508
-104 -711 -185 -450 -178 -650 -395 -824 -899 -33 -96 -77 -248 -95 -325 -37
-165 -89 -486 -100 -620 -4 -41 -8 -91 -11 -110 -18 -164 -25 -690 -10 -825 3
-33 8 -98 11 -145 10 -146 35 -330 67 -480 34 -167 59 -260 97 -370 145 -425
311 -627 646 -789 165 -80 435 -167 640 -206 44 -8 91 -17 105 -20 21 -5 124
-21 256 -40 58 -8 177 -20 338 -32 201 -15 734 -8 911 12 17 2 61 6 100 10 38
4 72 8 75 10 3 2 34 6 70 9 74 7 80 8 255 42 133 25 370 85 434 109 20 7 74
28 121 45 183 69 369 179 468 277 105 105 183 227 261 408 24 55 45 107 47
115 2 8 11 35 20 60 41 115 114 438 130 584 3 23 7 48 9 56 2 8 7 51 10 95 4
44 8 96 11 115 21 179 22 816 0 940 -2 14 -7 61 -11 104 -3 44 -8 94 -10 110
-2 17 -12 81 -20 141 -9 61 -18 124 -21 142 -6 52 -52 260 -80 363 -85 321
-227 624 -362 775 -55 61 -140 132 -216 183 -149 97 -454 222 -653 268 -157
35 -191 43 -243 53 -79 15 -105 19 -195 31 -44 6 -93 12 -110 15 -16 2 -59 6
-95 10 -36 3 -90 8 -120 11 -56 6 -646 14 -652 9z"/>
</g>
</svg>
